HIERARCHY
ROOT Hips
{
	OFFSET 0.000000 0.000000 0.000000
	CHANNELS 6 Xposition Yposition Zposition Xrotation Yrotation Zrotation
	JOINT Chest
	{
		OFFSET 0.000000 0.009282 11.569106
		CHANNELS 3 Xrotation Yrotation Zrotation
		JOINT Chest2
		{
			OFFSET 0.000000 -0.016863 9.269641
			CHANNELS 3 Xrotation Yrotation Zrotation
			JOINT Chest3
			{
				OFFSET 0.000000 -0.000000 8.374491
				CHANNELS 3 Xrotation Yrotation Zrotation
				JOINT Chest4
				{
					OFFSET 0.000000 -0.000000 8.374493
					CHANNELS 3 Xrotation Yrotation Zrotation
					JOINT Neck
					{
						OFFSET 0.000000 -0.000001 12.152554
						CHANNELS 3 Xrotation Yrotation Zrotation
						JOINT Head
						{
							OFFSET 0.000000 -0.040100 7.802319
							CHANNELS 3 Xrotation Yrotation Zrotation
							End Site
							{
								OFFSET 0.000000 -0.020946 14.853096
							}
						}
					}
					JOINT RightCollar
					{
						OFFSET -2.894404 -0.000000 6.791374
						CHANNELS 3 Xrotation Yrotation Zrotation
						JOINT RightShoulder
						{
							OFFSET -13.574684 0.000000 0.000000
							CHANNELS 3 Xrotation Yrotation Zrotation
							JOINT RightElbow
							{
								OFFSET -23.923903 0.000000 0.000000
								CHANNELS 3 Xrotation Yrotation Zrotation
								JOINT RightWrist
								{
									OFFSET -19.846718 -0.012765 0.000000
									CHANNELS 3 Xrotation Yrotation Zrotation
									End Site
									{
										OFFSET -14.973145 0.000000 0.000000
									}
								}
							}
						}
					}
					JOINT LeftCollar
					{
						OFFSET 2.894404 -0.000000 6.791374
						CHANNELS 3 Xrotation Yrotation Zrotation
						JOINT LeftShoulder
						{
							OFFSET 13.574684 0.000000 0.000000
							CHANNELS 3 Xrotation Yrotation Zrotation
							JOINT LeftElbow
							{
								OFFSET 23.923903 0.000000 0.000000
								CHANNELS 3 Xrotation Yrotation Zrotation
								JOINT LeftWrist
								{
									OFFSET 19.846718 -0.012765 0.000000
									CHANNELS 3 Xrotation Yrotation Zrotation
									End Site
									{
										OFFSET 14.973145 0.000000 0.000000
									}
								}
							}
						}
					}
				}
			}
		}
	}
	JOINT RightHip
	{
		OFFSET -9.469263 -0.004642 0.045487
		CHANNELS 3 Xrotation Yrotation Zrotation
		JOINT RightKnee
		{
			OFFSET 0.000000 -0.002666 -40.478676
			CHANNELS 3 Xrotation Yrotation Zrotation
			JOINT RightAnkle
			{
				OFFSET 0.000000 -0.049110 -35.224068
				CHANNELS 3 Xrotation Yrotation Zrotation
				JOINT RightToe
				{
					OFFSET 0.000000 -12.539530 -6.151390
					CHANNELS 3 Xrotation Yrotation Zrotation
					End Site
					{
						OFFSET 0.000000 -5.044995 -1.291870
					}
				}
			}
		}
	}
	JOINT LeftHip
	{
		OFFSET 9.469263 -0.004642 0.045487
		CHANNELS 3 Xrotation Yrotation Zrotation
		JOINT LeftKnee
		{
			OFFSET 0.000000 -0.002666 -40.478676
			CHANNELS 3 Xrotation Yrotation Zrotation
			JOINT LeftAnkle
			{
				OFFSET 0.000000 -0.049110 -35.224068
				CHANNELS 3 Xrotation Yrotation Zrotation
				JOINT LeftToe
				{
					OFFSET 0.000000 -12.539530 -6.151390
					CHANNELS 3 Xrotation Yrotation Zrotation
					End Site
					{
						OFFSET 0.000000 -5.044995 -1.291870
					}
				}
			}
		}
	}
}
MOTION
Frames: 10
Frame Time: 0.016667
0.000000 -0.000004 81.649483 -5.826342 0.000000 -0.000000 11.116424 0.000000 -0.000000 -5.290081 0.000000 -0.000000 -0.000000 0.000000 -0.000000 -0.000000 0.000000 -0.000000 12.665070 0.000000 -0.000000 0.575450 0.000000 -0.000000 -0.000000 0.000000 -0.000000 -0.000000 0.000000 -0.000000 0.000000 -0.000000 2.337306 0.000000 0.000000 -2.337305 -0.000000 0.000000 -0.000000 -0.000000 0.000000 -0.000000 0.000000 0.000000 -2.337306 0.000000 -0.000000 2.337305 8.578828 -0.000001 0.000000 1.905768 -0.000000 0.000000 -4.658254 0.000000 0.000000 -0.000000 -0.000000 -0.000000 8.578828 -0.000001 0.000000 1.905768 -0.000000 0.000000 -4.658254 -0.000000 -0.000000 -0.000000 -0.000000 -0.000000 
-12.062588 -6.299430 83.199448 1.983680 4.029001 -113.513735 2.555677 -0.499729 -0.393315 1.171930 -0.203592 -0.122655 1.171930 -0.203592 -0.122656 0.878987 -0.152460 -0.092380 16.671018 0.387093 -0.560358 -5.221777 0.902981 -0.884791 0.763246 -10.520382 0.170761 15.812885 -75.538532 20.604232 21.706975 1.105897 -2.327301 -6.039265 16.104322 15.032425 -1.287156 11.562077 0.232538 3.221471 76.633732 -5.197000 10.797738 0.424302 0.928428 5.598934 -8.276373 -12.770346 6.861522 -2.382745 -2.151449 0.876521 -0.601378 -5.182632 -2.080045 1.988499 9.642895 0.057945 0.016631 -0.027355 9.269263 2.924028 2.829731 0.067750 3.384801 14.551699 -5.550593 -4.349809 -1.192370 -0.030092 -0.005176 0.054402 
-12.046603 -6.295521 83.199104 1.984345 4.045468 -113.509008 2.549202 -0.510149 -0.409617 1.170211 -0.208448 -0.128096 1.170211 -0.208448 -0.128097 0.877700 -0.156091 -0.096472 16.711014 0.412701 -0.542791 -5.147642 0.943195 -0.844029 0.760438 -10.517439 0.171763 15.873677 -75.507113 20.674530 21.676365 1.113774 -2.351515 -6.057590 16.155484 15.097515 -1.300632 11.563306 0.223072 3.423668 76.646095 -5.349138 10.788757 0.448472 0.912183 5.615516 -8.269471 -12.772572 6.868597 -2.371799 -2.147509 0.871932 -0.601310 -5.173622 -2.072544 1.987617 9.742628 0.059487 0.013860 -0.025258 9.266309 2.929855 2.810958 0.081524 3.373723 14.573762 -5.546897 -4.346741 -1.182694 -0.029637 -0.004266 0.049713 
-12.032387 -6.300047 83.199654 1.982571 4.061709 -113.503565 2.543041 -0.520805 -0.424868 1.167866 -0.213343 -0.134851 1.167866 -0.213343 -0.134852 0.875945 -0.159750 -0.101548 16.748129 0.439767 -0.523218 -5.078881 0.985406 -0.799090 0.749071 -10.512611 0.173851 15.895452 -75.483159 20.695622 21.656901 1.126981 -2.372455 -6.077720 16.202040 15.144399 -1.307668 11.569036 0.222825 3.598583 76.657317 -5.488172 10.790367 0.469769 0.898610 5.634660 -8.263203 -12.763745 6.868143 -2.373678 -2.131230 0.880089 -0.597929 -5.177049 -2.068815 1.991892 9.724836 0.057520 0.015891 -0.027872 9.259303 2.938094 2.778462 0.096056 3.361361 14.622930 -5.540548 -4.340094 -1.217218 -0.031127 -0.005307 0.050914 
-12.014529 -6.301035 83.200951 1.981814 4.077269 -113.501481 2.538190 -0.531615 -0.434423 1.166117 -0.217038 -0.139038 1.166118 -0.217038 -0.139037 0.874637 -0.162514 -0.104693 16.781140 0.461532 -0.510237 -5.017687 1.020316 -0.768031 0.752180 -10.509214 0.178245 15.887683 -75.466473 20.699213 21.636240 1.145129 -2.392433 -6.113655 16.243914 15.174640 -1.308572 11.573631 0.219910 3.619926 76.669932 -5.498662 10.832263 0.486785 0.902275 5.657623 -8.259924 -12.752301 6.858247 -2.360776 -2.112323 0.902390 -0.604564 -5.197745 -2.068810 1.994537 9.751015 0.054945 0.014163 -0.026736 9.253089 2.948012 2.783237 0.108622 3.347605 14.637889 -5.532933 -4.339047 -1.234114 -0.031919 -0.002850 0.051178 
-11.997875 -6.303026 83.202583 1.985720 4.097936 -113.506536 2.538678 -0.541163 -0.439796 1.165980 -0.221109 -0.141575 1.165980 -0.221109 -0.141575 0.874535 -0.165563 -0.106603 16.810492 0.482765 -0.498418 -4.963289 1.054700 -0.739259 0.742623 -10.505289 0.181152 15.839072 -75.454602 20.650688 21.623762 1.161416 -2.409280 -6.138332 16.275449 15.203122 -1.313656 11.583360 0.228665 3.601317 76.686536 -5.471997 10.869280 0.494516 0.908054 5.693659 -8.263341 -12.748270 6.856478 -2.361429 -2.097149 0.921976 -0.600350 -5.201418 -2.065557 1.999709 9.778379 0.050743 0.012476 -0.026551 9.254568 2.953492 2.821887 0.122663 3.335532 14.629968 -5.527401 -4.335560 -1.260731 -0.032025 -0.001115 0.052273 
-11.981662 -6.303971 83.203857 1.985602 4.116265 -113.504842 2.537042 -0.548791 -0.446155 1.165075 -0.224323 -0.143794 1.165075 -0.224323 -0.143795 0.873858 -0.167969 -0.108274 16.838330 0.497931 -0.494187 -4.911628 1.080700 -0.726458 0.738105 -10.502567 0.185107 15.812911 -75.442581 20.626707 21.600210 1.174740 -2.429604 -6.163659 16.303590 15.235292 -1.314668 11.591912 0.229255 3.535872 76.713536 -5.397589 10.888379 0.490765 0.912619 5.705464 -8.271649 -12.752928 6.854380 -2.362619 -2.097493 0.937338 -0.594114 -5.198927 -2.064428 2.003153 9.742667 0.049293 0.011910 -0.027002 9.252234 2.958544 2.852531 0.137590 3.328812 14.593428 -5.519581 -4.334170 -1.262015 -0.033332 -0.002944 0.053324 
-11.965838 -6.304235 83.204803 1.984701 4.133484 -113.496243 2.533723 -0.555137 -0.450566 1.163384 -0.227248 -0.145499 1.163384 -0.227248 -0.145502 0.872590 -0.170160 -0.109557 16.865421 0.511396 -0.489401 -4.861360 1.103414 -0.713227 0.739994 -10.500128 0.181289 15.778929 -75.427015 20.599562 21.579076 1.176144 -2.442303 -6.162517 16.325786 15.264715 -1.315812 11.605427 0.231635 3.507788 76.735639 -5.360385 10.887392 0.487292 0.914269 5.703178 -8.283081 -12.756061 6.853318 -2.359416 -2.114019 0.950156 -0.590598 -5.177514 -2.064694 2.006342 9.735551 0.049902 0.010357 -0.027400 9.246618 2.962966 2.880977 0.156616 3.319042 14.557597 -5.515356 -4.331703 -1.269946 -0.032445 -0.002454 0.053529 
-11.951213 -6.306686 83.205872 1.984011 4.150602 -113.482179 2.532779 -0.559406 -0.455570 1.163260 -0.229706 -0.147241 1.163259 -0.229706 -0.147242 0.872499 -0.172000 -0.110872 16.890645 0.518996 -0.489369 -4.814505 1.117115 -0.710723 0.744598 -10.500016 0.181930 15.724783 -75.412132 20.548580 21.564748 1.176730 -2.451130 -6.177147 16.340627 15.292623 -1.314079 11.613833 0.234672 3.453112 76.759285 -5.303554 10.897557 0.486221 0.913917 5.670213 -8.297593 -12.770202 6.851953 -2.354637 -2.139403 0.965090 -0.597134 -5.168597 -2.066003 2.017941 9.724468 0.048429 0.008073 -0.028124 9.242546 2.969109 2.857133 0.168341 3.311892 14.558859 -5.507319 -4.334919 -1.253838 -0.033043 -0.002801 0.052331 
-11.937778 -6.314447 83.207146 1.980499 4.168403 -113.466128 2.531777 -0.562510 -0.457331 1.163751 -0.231314 -0.147120 1.163751 -0.231314 -0.147121 0.872868 -0.173206 -0.110778 16.914458 0.523320 -0.493576 -4.770223 1.126332 -0.717073 0.748924 -10.497188 0.180871 15.686771 -75.403403 20.509199 21.561702 1.176533 -2.454469 -6.195851 16.358356 15.311889 -1.308999 11.620483 0.233235 3.458374 76.774967 -5.308902 10.896090 0.496141 0.904325 5.690259 -8.301936 -12.770928 6.844841 -2.348987 -2.154446 0.990328 -0.601952 -5.177622 -2.075103 2.027815 9.636102 0.048879 0.006172 -0.029809 9.235155 2.980163 2.843004 0.185666 3.302213 14.590461 -5.502861 -4.332266 -1.298212 -0.035312 -0.004178 0.051393 
